<svg xmlns="http://www.w3.org/2000/svg" version="1.1" xmlns:xlink="http://www.w3.org/1999/xlink" xmlns:svgjs="http://svgjs.dev/svgjs" width="128" height="128" viewBox="0 0 128 128"><g transform="matrix(0.4517543859649123,0,0,0.4517543859649123,34.85837811615904,12.5)"><svg viewBox="0 0 126 225" data-background-color="#18181b" preserveAspectRatio="xMidYMid meet" height="228" width="128" xmlns="http://www.w3.org/2000/svg" xmlns:xlink="http://www.w3.org/1999/xlink"><g id="tight-bounds" transform="matrix(1,0,0,1,0.5001330452048194,0)"><svg viewBox="0 0 125 225" height="225" width="125"><g><svg></svg></g><g><svg viewBox="0 0 125 225" height="225" width="125"><g><path d="M120.283 112.499l2.569-4.448c4.422-7.659 1.798-17.453-5.861-21.875l-4.448-2.568v-5.137c0-8.843-7.17-16.013-16.013-16.013h-5.137l-2.569-4.448c-4.422-7.659-14.216-10.283-21.875-5.861l-4.45 2.567-4.448-2.569c-7.659-4.421-17.453-1.797-21.875 5.863l-2.568 4.448h-5.137c-8.843 0-16.013 7.17-16.013 16.013v5.137l-4.448 2.568c-7.659 4.422-10.283 14.216-5.861 21.875l2.567 4.448-2.569 4.448c-4.421 7.659-1.797 17.453 5.863 21.876l4.448 2.568v5.137c0 8.843 7.17 16.013 16.013 16.013h5.137l2.568 4.448c4.422 7.659 14.216 10.283 21.875 5.861l4.448-2.567 4.448 2.569c7.659 4.422 17.453 1.798 21.876-5.861l2.568-4.448h5.137c8.843 0 16.013-7.17 16.013-16.013v-5.137l4.448-2.569c7.659-4.422 10.283-14.216 5.861-21.875zM116.29 87.389c3.381 1.952 5.798 5.103 6.808 8.872 1.01 3.769 0.492 7.709-1.459 11.088l-2.164 3.748-6.932-12.008v-13.865zM98.108 148.108l-22.575 13.033h-26.067l-22.575-13.033-13.033-22.575v-26.067l13.033-22.575 22.575-13.033h26.067l22.575 13.033 13.033 22.575v26.067zM111.139 128.335v12.247l-10.606 6.123zM96.705 150.533l-6.123 10.606h-12.247zM73.105 162.541l-10.606 6.124-10.605-6.124zM46.663 161.139h-12.246l-6.123-10.606zM24.465 146.705l-10.605-6.123v-12.247zM12.458 123.105l-6.124-10.606 6.124-10.605zM13.86 96.663v-12.246l10.606-6.123zM28.294 74.466l6.123-10.606h12.246zM51.894 62.458l10.605-6.124 10.606 6.124zM78.335 63.86h12.247l6.123 10.605zM100.533 78.294l10.606 6.123v12.246zM112.541 101.894l6.124 10.605-6.124 10.606zM96.528 63.86c3.903 0 7.572 1.519 10.333 4.28 2.759 2.759 4.28 6.43 4.28 10.332v4.328l-12.008-6.932-6.933-12.008zM67.649 53.362c3.381-1.952 7.318-2.469 11.087-1.459 3.769 1.01 6.92 3.429 8.872 6.808l2.163 3.748h-13.864l-12.008-6.932zM37.389 58.709c1.952-3.381 5.103-5.798 8.872-6.808 3.769-1.01 7.709-0.492 11.088 1.459l3.748 2.164-12.008 6.932h-13.865zM13.86 78.471c0-3.903 1.519-7.572 4.28-10.333 2.759-2.759 6.43-4.28 10.332-4.28h4.328l-6.932 12.008-12.008 6.933zM3.362 107.35c-1.952-3.381-2.469-7.318-1.459-11.087 1.01-3.769 3.429-6.92 6.808-8.872l3.748-2.164v13.865l-6.932 12.008zM8.709 137.61c-3.381-1.952-5.798-5.103-6.808-8.872-1.01-3.769-0.492-7.709 1.459-11.088l2.164-3.748 6.932 12.008v13.864zM28.471 161.139c-3.903 0-7.572-1.519-10.333-4.28-2.759-2.759-4.28-6.43-4.28-10.332v-4.328l12.008 6.932 6.933 12.008zM57.35 171.637c-3.381 1.952-7.318 2.469-11.087 1.459-3.769-1.01-6.92-3.429-8.872-6.808l-2.164-3.748h13.865l12.008 6.932zM87.61 166.29c-1.952 3.381-5.103 5.798-8.872 6.808-3.769 1.01-7.709 0.492-11.088-1.459l-3.748-2.164 12.008-6.932h13.864zM111.139 146.528c0 3.903-1.519 7.572-4.28 10.333-2.759 2.759-6.43 4.28-10.332 4.28h-4.328l6.932-12.008 12.008-6.933zM123.098 128.736c-1.01 3.769-3.429 6.92-6.808 8.872l-3.749 2.163v-13.864l6.933-12.008 2.163 3.748c1.952 3.382 2.471 7.32 1.461 11.089z" fill="#000000" fill-rule="nonzero" stroke="none" stroke-width="1" stroke-linecap="butt" stroke-linejoin="miter" stroke-miterlimit="10" stroke-dasharray="" stroke-dashoffset="0" font-family="none" font-weight="none" font-size="none" text-anchor="none" style="mix-blend-mode: normal" data-fill-palette-color="tertiary"></path></g><g transform="matrix(1,0,0,1,39.325,86.68271971496436)"><svg viewBox="0 0 46.35 51.634560570071265" height="51.634560570071265" width="46.35"><g><svg viewBox="0 0 46.35 51.634560570071265" height="51.634560570071265" width="46.35"><g><svg viewBox="0 0 46.35 51.634560570071265" height="51.634560570071265" width="46.35"><g id="textblocktransform"><svg viewBox="0 0 46.35 51.634560570071265" height="51.634560570071265" width="46.35" id="textblock"><g><svg viewBox="0 0 46.35 51.634560570071265" height="51.634560570071265" width="46.35"><g transform="matrix(1,0,0,1,0,0)"><svg width="46.35" viewBox="1.61 -33.54 30.840000000000003 34.35000000000001" height="51.634560570071265" data-palette-color="#dedede"><path d="M32.45-2.1L32.45 0.15Q32.13 0.17 31.2 0.49 30.27 0.81 29.15 0.81L29.15 0.81Q26.59 0.81 25.09-0.05 23.58-0.9 22.77-2.31 21.95-3.71 21.47-5.4 21-7.08 20.51-8.75 20.02-10.42 19.17-11.83 18.31-13.23 16.77-14.09 15.23-14.94 12.6-14.94L12.6-14.94Q11.82-14.94 11.12-14.89 10.42-14.84 10.35-14.84L10.35-14.84 10.35-3.44Q10.35-3.08 10.61-2.73 10.86-2.39 11.4-2.34L11.4-2.34 14.04-2.15 14.04 0 1.61 0 1.61-2.15 4.2-2.34Q4.74-2.39 5.02-2.73 5.3-3.08 5.3-3.44L5.3-3.44 5.3-30.1Q5.3-30.47 5.02-30.82 4.74-31.18 4.2-31.2L4.2-31.2 1.61-31.4 1.61-33.54 14.65-33.54Q20.34-33.54 23.62-31.58 26.9-29.61 26.9-24.66L26.9-24.66Q26.9-22.05 25.73-20.37 24.56-18.7 22.69-17.75 20.83-16.8 18.7-16.31L18.7-16.31Q21.02-15.75 22.33-14.71 23.63-13.67 24.27-12.35 24.9-11.04 25.22-9.62 25.54-8.2 25.85-6.86 26.17-5.52 26.82-4.44 27.47-3.37 28.78-2.73 30.1-2.1 32.45-2.1L32.45-2.1ZM21.46-24.44L21.46-24.44Q21.46-27.64 19.42-29.37 17.38-31.1 12.65-31.1L12.65-31.1 10.35-31.1 10.35-17.41Q10.47-17.41 11.36-17.38 12.26-17.36 12.84-17.36L12.84-17.36Q17.02-17.36 19.24-18.9 21.46-20.43 21.46-24.44Z" opacity="1" transform="matrix(1,0,0,1,0,0)" fill="#000000" class="wordmark-text-0" data-fill-palette-color="primary" id="text-0"></path></svg></g></svg></g></svg></g></svg></g></svg></g></svg></g></svg></g><defs></defs></svg><rect width="125" height="225" fill="none" stroke="none" visibility="hidden"></rect></g></svg></g></svg>